<?xml version="1.0" encoding="UTF-8" standalone="no"?>
<svg width="594mm" height="420mm" viewBox="0 0 594 420" version="1.1" id="svg5" xmlns="http://www.w3.org/2000/svg" xmlns:svg="http://www.w3.org/2000/svg">
<g id="checkers">
<rect width="61" height="61" x="22.5" y="27"></rect>
<rect width="61" height="61" x="144.5" y="27"></rect>
<rect width="61" height="61" x="266.5" y="27"></rect>
<rect width="61" height="61" x="388.5" y="27"></rect>
<rect width="61" height="61" x="510.5" y="27"></rect>
<rect width="61" height="61" x="83.5" y="88"></rect>
<rect width="61" height="61" x="205.5" y="88"></rect>
<rect width="61" height="61" x="327.5" y="88"></rect>
<rect width="61" height="61" x="449.5" y="88"></rect>
<rect width="61" height="61" x="22.5" y="149"></rect>
<rect width="61" height="61" x="144.5" y="149"></rect>
<rect width="61" height="61" x="266.5" y="149"></rect>
<rect width="61" height="61" x="388.5" y="149"></rect>
<rect width="61" height="61" x="510.5" y="149"></rect>
<rect width="61" height="61" x="83.5" y="210"></rect>
<rect width="61" height="61" x="205.5" y="210"></rect>
<rect width="61" height="61" x="327.5" y="210"></rect>
<rect width="61" height="61" x="449.5" y="210"></rect>
<rect width="61" height="61" x="22.5" y="271"></rect>
<rect width="61" height="61" x="144.5" y="271"></rect>
<rect width="61" height="61" x="266.5" y="271"></rect>
<rect width="61" height="61" x="388.5" y="271"></rect>
<rect width="61" height="61" x="510.5" y="271"></rect>
<rect width="61" height="61" x="83.5" y="332"></rect>
<rect width="61" height="61" x="205.5" y="332"></rect>
<rect width="61" height="61" x="327.5" y="332"></rect>
<rect width="61" height="61" x="449.5" y="332"></rect>

</g>
</svg>
